<svg id="visual" viewBox="0 0 960 300" width="960" height="300" xmlns="http://www.w3.org/2000/svg" xmlns:xlink="http://www.w3.org/1999/xlink" version="1.1"><path d="M0 150L22.8 153.7C45.7 157.3 91.3 164.7 137 164.8C182.7 165 228.3 158 274 153.2C319.7 148.3 365.3 145.7 411.2 151.8C457 158 503 173 548.8 174.7C594.7 176.3 640.3 164.7 686 162.2C731.7 159.7 777.3 166.3 823 167.8C868.7 169.3 914.3 165.7 937.2 163.8L960 162L960 0L937.2 0C914.3 0 868.7 0 823 0C777.3 0 731.7 0 686 0C640.3 0 594.7 0 548.8 0C503 0 457 0 411.2 0C365.3 0 319.7 0 274 0C228.3 0 182.7 0 137 0C91.3 0 45.7 0 22.8 0L0 0Z" fill="#6977fa"></path><path d="M0 96L22.8 105C45.7 114 91.3 132 137 140.2C182.7 148.3 228.3 146.7 274 140C319.7 133.3 365.3 121.7 411.2 121.2C457 120.7 503 131.3 548.8 140.3C594.7 149.3 640.3 156.7 686 150.7C731.7 144.7 777.3 125.3 823 120.5C868.7 115.7 914.3 125.3 937.2 130.2L960 135L960 0L937.2 0C914.3 0 868.7 0 823 0C777.3 0 731.7 0 686 0C640.3 0 594.7 0 548.8 0C503 0 457 0 411.2 0C365.3 0 319.7 0 274 0C228.3 0 182.7 0 137 0C91.3 0 45.7 0 22.8 0L0 0Z" fill="#5865d3"></path><path d="M0 113L22.8 112.7C45.7 112.3 91.3 111.7 137 107.5C182.7 103.3 228.3 95.7 274 91.2C319.7 86.7 365.3 85.3 411.2 85.8C457 86.3 503 88.7 548.8 86.5C594.7 84.3 640.3 77.7 686 74.7C731.7 71.7 777.3 72.3 823 76C868.7 79.7 914.3 86.3 937.2 89.7L960 93L960 0L937.2 0C914.3 0 868.7 0 823 0C777.3 0 731.7 0 686 0C640.3 0 594.7 0 548.8 0C503 0 457 0 411.2 0C365.3 0 319.7 0 274 0C228.3 0 182.7 0 137 0C91.3 0 45.7 0 22.8 0L0 0Z" fill="#4853ae"></path><path d="M0 44L22.8 47C45.7 50 91.3 56 137 62.3C182.7 68.7 228.3 75.3 274 75.2C319.7 75 365.3 68 411.2 68.7C457 69.3 503 77.7 548.8 79.8C594.7 82 640.3 78 686 74.5C731.7 71 777.3 68 823 68.8C868.7 69.7 914.3 74.3 937.2 76.7L960 79L960 0L937.2 0C914.3 0 868.7 0 823 0C777.3 0 731.7 0 686 0C640.3 0 594.7 0 548.8 0C503 0 457 0 411.2 0C365.3 0 319.7 0 274 0C228.3 0 182.7 0 137 0C91.3 0 45.7 0 22.8 0L0 0Z" fill="#39428a"></path><path d="M0 21L22.8 24.5C45.7 28 91.3 35 137 37.8C182.7 40.7 228.3 39.3 274 38C319.7 36.7 365.3 35.3 411.2 35.3C457 35.3 503 36.7 548.8 35.2C594.7 33.7 640.3 29.3 686 31.8C731.7 34.3 777.3 43.7 823 48.3C868.7 53 914.3 53 937.2 53L960 53L960 0L937.2 0C914.3 0 868.7 0 823 0C777.3 0 731.7 0 686 0C640.3 0 594.7 0 548.8 0C503 0 457 0 411.2 0C365.3 0 319.7 0 274 0C228.3 0 182.7 0 137 0C91.3 0 45.7 0 22.8 0L0 0Z" fill="#2b3167"></path></svg>