<svg id="visual" viewBox="0 0 960 300" width="960" height="300" xmlns="http://www.w3.org/2000/svg" xmlns:xlink="http://www.w3.org/1999/xlink" version="1.1"><path d="M0 108L22.8 108.8C45.7 109.7 91.3 111.3 137 116.7C182.7 122 228.3 131 274 141.5C319.7 152 365.3 164 411.2 159.3C457 154.7 503 133.3 548.8 131.5C594.7 129.7 640.3 147.3 686 158.3C731.7 169.3 777.3 173.7 823 175.5C868.7 177.3 914.3 176.7 937.2 176.3L960 176L960 301L937.2 301C914.3 301 868.7 301 823 301C777.3 301 731.7 301 686 301C640.3 301 594.7 301 548.8 301C503 301 457 301 411.2 301C365.3 301 319.7 301 274 301C228.3 301 182.7 301 137 301C91.3 301 45.7 301 22.8 301L0 301Z" fill="#6977fa"></path><path d="M0 189L22.8 179.8C45.7 170.7 91.3 152.3 137 154.7C182.7 157 228.3 180 274 181.2C319.7 182.3 365.3 161.7 411.2 160.8C457 160 503 179 548.8 182.3C594.7 185.7 640.3 173.3 686 166C731.7 158.7 777.3 156.3 823 153.5C868.7 150.7 914.3 147.3 937.2 145.7L960 144L960 301L937.2 301C914.3 301 868.7 301 823 301C777.3 301 731.7 301 686 301C640.3 301 594.7 301 548.8 301C503 301 457 301 411.2 301C365.3 301 319.7 301 274 301C228.3 301 182.7 301 137 301C91.3 301 45.7 301 22.8 301L0 301Z" fill="#5865d3"></path><path d="M0 191L22.8 197C45.7 203 91.3 215 137 217.2C182.7 219.3 228.3 211.7 274 203.3C319.7 195 365.3 186 411.2 187.3C457 188.7 503 200.3 548.8 207.5C594.7 214.7 640.3 217.3 686 211.5C731.7 205.7 777.3 191.3 823 187.8C868.7 184.3 914.3 191.7 937.2 195.3L960 199L960 301L937.2 301C914.3 301 868.7 301 823 301C777.3 301 731.7 301 686 301C640.3 301 594.7 301 548.8 301C503 301 457 301 411.2 301C365.3 301 319.7 301 274 301C228.3 301 182.7 301 137 301C91.3 301 45.7 301 22.8 301L0 301Z" fill="#4853ae"></path><path d="M0 211L22.8 216.7C45.7 222.3 91.3 233.7 137 239C182.7 244.3 228.3 243.7 274 237C319.7 230.3 365.3 217.7 411.2 218.3C457 219 503 233 548.8 237.5C594.7 242 640.3 237 686 235.2C731.7 233.3 777.3 234.7 823 236.5C868.7 238.3 914.3 240.7 937.2 241.8L960 243L960 301L937.2 301C914.3 301 868.7 301 823 301C777.3 301 731.7 301 686 301C640.3 301 594.7 301 548.8 301C503 301 457 301 411.2 301C365.3 301 319.7 301 274 301C228.3 301 182.7 301 137 301C91.3 301 45.7 301 22.8 301L0 301Z" fill="#39428a"></path><path d="M0 275L22.8 271.5C45.7 268 91.3 261 137 260.3C182.7 259.7 228.3 265.3 274 269.2C319.7 273 365.3 275 411.2 275C457 275 503 273 548.8 273.3C594.7 273.7 640.3 276.3 686 272.8C731.7 269.3 777.3 259.7 823 258.5C868.7 257.3 914.3 264.7 937.2 268.3L960 272L960 301L937.2 301C914.3 301 868.7 301 823 301C777.3 301 731.7 301 686 301C640.3 301 594.7 301 548.8 301C503 301 457 301 411.2 301C365.3 301 319.7 301 274 301C228.3 301 182.7 301 137 301C91.3 301 45.7 301 22.8 301L0 301Z" fill="#2b3167"></path></svg>